<?xml version="1.0" encoding="UTF-8"?>
<svg xmlns="http://www.w3.org/2000/svg" xmlns:xlink="http://www.w3.org/1999/xlink" width="288px" height="288px" viewBox="0 0 144 144" version="1.1">
<defs>
<clipPath id="clip1">
  <path d="M 43.769531 38.917969 L 75 38.917969 L 75 75 L 43.769531 75 Z M 43.769531 38.917969 "/>
</clipPath>
<clipPath id="clip2">
  <path d="M 43.769531 38.917969 L 75 38.917969 L 75 75 L 43.769531 75 Z M 43.769531 38.917969 "/>
</clipPath>
<clipPath id="clip3">
  <path d="M 43.769531 69 L 75 69 L 75 105.289062 L 43.769531 105.289062 Z M 43.769531 69 "/>
</clipPath>
<clipPath id="clip4">
  <path d="M 68 38.917969 L 99.695312 38.917969 L 99.695312 75 L 68 75 Z M 68 38.917969 "/>
</clipPath>
<clipPath id="clip5">
  <path d="M 68 69 L 99.695312 69 L 99.695312 105.289062 L 68 105.289062 Z M 68 69 "/>
</clipPath>
</defs>
<g id="surface1">
<path style=" stroke:none;fill-rule:nonzero;fill:rgb(100%,74.901961%,40%);fill-opacity:1;" d="M 72 15.003906 C 16.984375 15.003906 15.003906 16.984375 15.003906 72 C 15.003906 127.015625 16.984375 128.996094 72 128.996094 C 127.015625 128.996094 128.996094 127.015625 128.996094 72 C 128.996094 16.984375 127.015625 15.003906 72 15.003906 Z M 72 15.003906 "/>
<path style=" stroke:none;fill-rule:nonzero;fill:rgb(100%,100%,100%);fill-opacity:1;" d="M 71.503906 39.324219 L 66.492188 39.324219 L 66.492188 55.789062 C 66.492188 55.789062 60.949219 53.671875 57.738281 49.144531 C 53.957031 43.8125 54.695312 39.167969 54.695312 39.167969 L 44.246094 39.167969 C 44.246094 39.167969 43.457031 60.304688 65.621094 66.796875 L 44.007812 66.796875 L 44.007812 71.859375 L 71.480469 71.859375 L 71.480469 40.355469 Z M 71.503906 39.324219 "/>
<g clip-path="url(#clip1)" clip-rule="nonzero">
<path style="fill:none;stroke-width:8;stroke-linecap:butt;stroke-linejoin:miter;stroke:rgb(100%,100%,100%);stroke-opacity:1;stroke-miterlimit:4;" d="M 451.260479 1075.494057 L 369.711064 1075.494057 L 369.711064 807.518737 C 369.711064 807.518737 279.517283 842.032636 227.269723 915.636863 C 165.742183 1002.461884 177.755308 1078.036517 177.755308 1078.036517 L 7.728273 1078.036517 C 7.728273 1078.036517 -5.111152 734.105195 355.536848 628.465967 L 3.851021 628.465967 L 3.851021 546.090252 L 450.87911 546.090252 L 450.87911 1058.713819 Z M 451.260479 1075.494057 " transform="matrix(0.0614562,0,0,-0.0614562,43.771143,105.420017)"/>
</g>
<path style=" stroke:none;fill-rule:nonzero;fill:rgb(100%,100%,100%);fill-opacity:1;" d="M 71.503906 39.324219 L 66.492188 39.324219 L 66.492188 55.789062 C 66.492188 55.789062 60.949219 53.671875 57.738281 49.144531 C 53.957031 43.8125 54.695312 39.167969 54.695312 39.167969 L 44.246094 39.167969 C 44.246094 39.167969 43.457031 60.304688 65.621094 66.796875 L 44.007812 66.796875 L 44.007812 71.859375 L 71.480469 71.859375 L 71.480469 40.355469 Z M 71.503906 39.324219 "/>
<g clip-path="url(#clip2)" clip-rule="nonzero">
<path style="fill:none;stroke-width:8;stroke-linecap:butt;stroke-linejoin:miter;stroke:rgb(100%,100%,100%);stroke-opacity:1;stroke-miterlimit:4;" d="M 451.260479 1075.494057 L 369.711064 1075.494057 L 369.711064 807.518737 C 369.711064 807.518737 279.517283 842.032636 227.269723 915.636863 C 165.742183 1002.461884 177.755308 1078.036517 177.755308 1078.036517 L 7.728273 1078.036517 C 7.728273 1078.036517 -5.111152 734.105195 355.536848 628.465967 L 3.851021 628.465967 L 3.851021 546.090252 L 450.87911 546.090252 L 450.87911 1058.713819 Z M 451.260479 1075.494057 " transform="matrix(0.0614562,0,0,-0.0614562,43.771143,105.420017)"/>
</g>
<path style=" stroke:none;fill-rule:nonzero;fill:rgb(100%,100%,100%);fill-opacity:1;" d="M 71.503906 104.398438 L 66.492188 104.398438 L 66.492188 87.929688 C 66.492188 87.929688 60.949219 90.050781 57.738281 94.574219 C 53.957031 99.910156 54.695312 104.554688 54.695312 104.554688 L 44.246094 104.554688 C 44.246094 104.554688 43.457031 83.417969 65.621094 76.929688 L 44.007812 76.929688 L 44.007812 71.859375 L 71.480469 71.859375 L 71.480469 103.371094 Z M 71.503906 104.398438 "/>
<g clip-path="url(#clip3)" clip-rule="nonzero">
<path style="fill:none;stroke-width:8;stroke-linecap:butt;stroke-linejoin:miter;stroke:rgb(100%,100%,100%);stroke-opacity:1;stroke-miterlimit:4;" d="M 451.260479 16.622886 L 369.711064 16.622886 L 369.711064 284.598206 C 369.711064 284.598206 279.517283 250.084307 227.269723 176.48008 C 165.742183 89.65506 177.755308 14.080426 177.755308 14.080426 L 7.728273 14.080426 C 7.728273 14.080426 -5.111152 358.011749 355.536848 463.587414 L 3.851021 463.587414 L 3.851021 546.090252 L 450.87911 546.090252 L 450.87911 33.339563 Z M 451.260479 16.622886 " transform="matrix(0.0614562,0,0,-0.0614562,43.771143,105.420017)"/>
</g>
<path style=" stroke:none;fill-rule:nonzero;fill:rgb(100%,100%,100%);fill-opacity:1;" d="M 71.503906 39.324219 L 76.511719 39.324219 L 76.511719 55.789062 C 76.511719 55.789062 82.054688 53.671875 85.265625 49.144531 C 89.050781 43.8125 88.308594 39.167969 88.308594 39.167969 L 98.761719 39.167969 C 98.761719 39.167969 99.550781 60.304688 77.382812 66.796875 L 98.996094 66.796875 L 98.996094 71.859375 L 71.527344 71.859375 L 71.527344 40.355469 Z M 71.503906 39.324219 "/>
<g clip-path="url(#clip4)" clip-rule="nonzero">
<path style="fill:none;stroke-width:8;stroke-linecap:butt;stroke-linejoin:miter;stroke:rgb(100%,100%,100%);stroke-opacity:1;stroke-miterlimit:4;" d="M 451.260479 1075.494057 L 532.746333 1075.494057 L 532.746333 807.518737 C 532.746333 807.518737 622.940114 842.032636 675.187674 915.636863 C 736.778776 1002.461884 724.702089 1078.036517 724.702089 1078.036517 L 894.792686 1078.036517 C 894.792686 1078.036517 907.632111 734.105195 546.92055 628.465967 L 898.606376 628.465967 L 898.606376 546.090252 L 451.641848 546.090252 L 451.641848 1058.713819 Z M 451.260479 1075.494057 " transform="matrix(0.0614562,0,0,-0.0614562,43.771143,105.420017)"/>
</g>
<path style=" stroke:none;fill-rule:nonzero;fill:rgb(100%,100%,100%);fill-opacity:1;" d="M 71.503906 104.398438 L 76.511719 104.398438 L 76.511719 87.929688 C 76.511719 87.929688 82.054688 90.050781 85.265625 94.574219 C 89.050781 99.910156 88.308594 104.554688 88.308594 104.554688 L 98.761719 104.554688 C 98.761719 104.554688 99.550781 83.417969 77.382812 76.929688 L 98.996094 76.929688 L 98.996094 71.859375 L 71.527344 71.859375 L 71.527344 103.371094 Z M 71.503906 104.398438 "/>
<g clip-path="url(#clip5)" clip-rule="nonzero">
<path style="fill:none;stroke-width:8;stroke-linecap:butt;stroke-linejoin:miter;stroke:rgb(100%,100%,100%);stroke-opacity:1;stroke-miterlimit:4;" d="M 451.260479 16.622886 L 532.746333 16.622886 L 532.746333 284.598206 C 532.746333 284.598206 622.940114 250.084307 675.187674 176.48008 C 736.778776 89.65506 724.702089 14.080426 724.702089 14.080426 L 894.792686 14.080426 C 894.792686 14.080426 907.632111 358.011749 546.92055 463.587414 L 898.606376 463.587414 L 898.606376 546.090252 L 451.641848 546.090252 L 451.641848 33.339563 Z M 451.260479 16.622886 " transform="matrix(0.0614562,0,0,-0.0614562,43.771143,105.420017)"/>
</g>
</g>
</svg>
