<?xml version="1.0" encoding="UTF-8" standalone="no"?>
<svg
   xmlns:dc="http://purl.org/dc/elements/1.1/"
   xmlns:cc="http://creativecommons.org/ns#"
   xmlns:rdf="http://www.w3.org/1999/02/22-rdf-syntax-ns#"
   xmlns:svg="http://www.w3.org/2000/svg"
   xmlns="http://www.w3.org/2000/svg"
   xmlns:sodipodi="http://sodipodi.sourceforge.net/DTD/sodipodi-0.dtd"
   xmlns:inkscape="http://www.inkscape.org/namespaces/inkscape"
   version="1.1"
   id="svg2"
   xml:space="preserve"
   width="121.33333"
   height="145.33333"
   viewBox="0 0 121.33333 145.33333"
   sodipodi:docname="LogoUTN_nvgsb.eps"><metadata
     id="metadata8"><rdf:RDF><cc:Work
         rdf:about=""><dc:format>image/svg+xml</dc:format><dc:type
           rdf:resource="http://purl.org/dc/dcmitype/StillImage" /></cc:Work></rdf:RDF></metadata><defs
     id="defs6"><clipPath
       clipPathUnits="userSpaceOnUse"
       id="clipPath20"><path
         d="M 0,2.12109 H 910 V 1082.1211 H 0 Z"
         id="path18" /></clipPath></defs><sodipodi:namedview
     pagecolor="#ffffff"
     bordercolor="#666666"
     borderopacity="1"
     objecttolerance="10"
     gridtolerance="10"
     guidetolerance="10"
     inkscape:pageopacity="0"
     inkscape:pageshadow="2"
     inkscape:window-width="640"
     inkscape:window-height="480"
     id="namedview4" /><g
     id="g10"
     inkscape:groupmode="layer"
     inkscape:label="ink_ext_XXXXXX"
     transform="matrix(1.3333333,0,0,-1.3333333,0,145.33333)"><g
       id="g12"
       transform="scale(0.1)"><g
         id="g14"><g
           id="g16"
           clip-path="url(#clipPath20)"><path
             d="M 451.25,1075.48 H 369.73 V 807.551 c 0,0 -90.199,34.488 -142.429,108.121 -61.563,86.798 -49.531,162.388 -49.531,162.388 H 7.73047 c 0,0 -12.85156,-343.951 347.82053,-449.572 H 3.87109 V 546.059 H 450.859 v 512.661 z"
             style="fill:#000000;fill-opacity:1;fill-rule:nonzero;stroke:none"
             id="path22" /><path
             d="M 451.25,1075.48 H 369.73 V 807.547 c 0,0 -90.199,34.492 -142.429,108.121 -61.563,86.802 -49.531,162.392 -49.531,162.392 H 7.73047 c 0,0 -12.85156,-343.951 347.82053,-449.572 H 3.87109 V 546.07 H 450.859 v 512.65 z"
             style="fill:none;stroke:#000000;stroke-width:8;stroke-linecap:butt;stroke-linejoin:miter;stroke-miterlimit:4;stroke-dasharray:none;stroke-opacity:1"
             id="path24" /><path
             d="M 451.25,1075.48 H 369.73 V 807.551 c 0,0 -90.199,34.488 -142.429,108.121 -61.563,86.798 -49.531,162.388 -49.531,162.388 H 7.73047 c 0,0 -12.85156,-343.951 347.82053,-449.572 H 3.87109 V 546.059 H 450.859 v 512.661 z"
             style="fill:#000000;fill-opacity:1;fill-rule:nonzero;stroke:none"
             id="path26" /><path
             d="M 451.25,1075.48 H 369.73 V 807.547 c 0,0 -90.199,34.492 -142.429,108.121 -61.563,86.802 -49.531,162.392 -49.531,162.392 H 7.73047 c 0,0 -12.85156,-343.951 347.82053,-449.572 H 3.87109 V 546.07 H 450.859 v 512.65 z"
             style="fill:none;stroke:#000000;stroke-width:8;stroke-linecap:butt;stroke-linejoin:miter;stroke-miterlimit:4;stroke-dasharray:none;stroke-opacity:1"
             id="path28" /><path
             d="M 451.25,16.6484 H 369.73 V 284.578 c 0,0 -90.199,-34.488 -142.429,-108.129 C 165.738,89.6602 177.77,14.0703 177.77,14.0703 H 7.73047 c 0,0 -12.85156,343.9097 347.82053,449.5317 H 3.87109 v 82.457 H 450.859 V 33.3711 Z"
             style="fill:#000000;fill-opacity:1;fill-rule:nonzero;stroke:none"
             id="path30" /><path
             d="M 451.25,16.6484 H 369.73 V 284.578 c 0,0 -90.199,-34.488 -142.429,-108.121 C 165.738,89.6602 177.77,14.0703 177.77,14.0703 H 7.73047 c 0,0 -12.85156,343.9097 347.82053,449.5277 H 3.87109 V 546.07 H 450.859 V 33.3672 Z"
             style="fill:none;stroke:#000000;stroke-width:8;stroke-linecap:butt;stroke-linejoin:miter;stroke-miterlimit:4;stroke-dasharray:none;stroke-opacity:1"
             id="path32" /><path
             d="m 451.25,1075.48 h 81.52 V 807.551 c 0,0 90.199,34.488 142.429,108.121 61.563,86.798 49.531,162.388 49.531,162.388 h 170.04 c 0,0 12.851,-343.951 -347.821,-449.572 h 351.68 V 546.059 H 451.641 v 512.661 z"
             style="fill:#000000;fill-opacity:1;fill-rule:nonzero;stroke:none"
             id="path34" /><path
             d="m 451.25,1075.48 h 81.52 V 807.547 c 0,0 90.199,34.492 142.429,108.121 61.563,86.802 49.531,162.392 49.531,162.392 h 170.04 c 0,0 12.851,-343.951 -347.821,-449.572 h 351.68 V 546.07 H 451.641 v 512.65 z"
             style="fill:none;stroke:#000000;stroke-width:8;stroke-linecap:butt;stroke-linejoin:miter;stroke-miterlimit:4;stroke-dasharray:none;stroke-opacity:1"
             id="path36" /><path
             d="m 451.25,16.6484 h 81.52 V 284.578 c 0,0 90.199,-34.488 142.429,-108.129 C 736.762,89.6602 724.73,14.0703 724.73,14.0703 h 170.04 c 0,0 12.851,343.9097 -347.821,449.5317 h 351.68 v 82.457 H 451.641 V 33.3711 Z"
             style="fill:#000000;fill-opacity:1;fill-rule:nonzero;stroke:none"
             id="path38" /><path
             d="m 451.25,16.6484 h 81.52 V 284.578 c 0,0 90.199,-34.488 142.429,-108.121 C 736.762,89.6602 724.73,14.0703 724.73,14.0703 h 170.04 c 0,0 12.851,343.9097 -347.821,449.5277 h 351.68 V 546.07 H 451.641 V 33.3672 Z"
             style="fill:none;stroke:#000000;stroke-width:8;stroke-linecap:butt;stroke-linejoin:miter;stroke-miterlimit:4;stroke-dasharray:none;stroke-opacity:1"
             id="path40" /></g></g></g></g></svg>
