<?xml version="1.0" encoding="UTF-8" standalone="no" ?>
<!DOCTYPE svg PUBLIC "-//W3C//DTD SVG 1.1//EN" "http://www.w3.org/Graphics/SVG/1.1/DTD/svg11.dtd">
<svg xmlns="http://www.w3.org/2000/svg" xmlns:xlink="http://www.w3.org/1999/xlink" version="1.1" width="50" height="50" viewBox="0 0 500 500" xml:space="preserve">
<desc>Created with Fabric.js 4.6.0</desc>
<defs>
</defs>
<g transform="matrix(1.73 0 0 1.73 250 250)" id="Z7PHyu9xBvMxw5ckNt8vP"  >
<path style="stroke: none; stroke-width: 1; stroke-dasharray: none; stroke-linecap: butt; stroke-dashoffset: 0; stroke-linejoin: miter; stroke-miterlimit: 4; fill: rgb(255,191,102); fill-rule: nonzero; opacity: 1;" vector-effect="non-scaling-stroke"  transform=" translate(-144, -144)" d="M 144 0 C 5 0 0 5 0 144 C 0 283 5 288 144 288 C 283 288 288 283 288 144 C 288 5 283 0 144 0 Z" stroke-linecap="round" />
</g>
<g transform="matrix(2.64 0 0 2.62 249.5 249.5)" id="UfR07-eJdi_BeQtVyNnpK"  >
<g style="" vector-effect="non-scaling-stroke"   >
		<g transform="matrix(0.12 0 0 -0.12 -25.86 31)" id="U4Ab0lYsGaGhD7p0i_Rzm" clip-path="url(#CLIPPATH_32)"  >
<clipPath id="CLIPPATH_32" >
	<path transform="matrix(1 0 0 1 227.44 262.06) translate(-455, -542.12)" id="a" d="M 0 2.12109 L 910 2.12109 L 910 1082.1211 L 0 1082.1211 Z" stroke-linecap="round" />
</clipPath>
<path style="stroke: none; stroke-width: 1; stroke-dasharray: none; stroke-linecap: butt; stroke-dashoffset: 0; stroke-linejoin: miter; stroke-miterlimit: 4; fill: rgb(255,255,255); fill-rule: nonzero; opacity: 1;" vector-effect="non-scaling-stroke"  transform=" translate(-227.56, -280.06)" d="M 451.25 16.6484 L 369.73 16.6484 L 369.73 284.578 C 369.73 284.578 279.531 250.08999999999997 227.30100000000002 176.44899999999996 C 165.738 89.6602 177.77 14.0703 177.77 14.0703 L 7.73047 14.0703 C 7.73047 14.0703 -5.121089999999999 357.97999999999996 355.55100000000004 463.602 L 3.87109 463.602 L 3.87109 546.059 L 450.859 546.059 L 450.859 33.3711 Z" stroke-linecap="round" />
</g>
		<g transform="matrix(0.12 0 0 -0.12 26.14 31)" id="N-PYifeFubqGmMDEk5nC5" clip-path="url(#CLIPPATH_33)"  >
<clipPath id="CLIPPATH_33" >
	<path transform="matrix(1 0 0 1 -219.94 262.06) translate(-455, -542.12)" id="a" d="M 0 2.12109 L 910 2.12109 L 910 1082.1211 L 0 1082.1211 Z" stroke-linecap="round" />
</clipPath>
<path style="stroke: none; stroke-width: 1; stroke-dasharray: none; stroke-linecap: butt; stroke-dashoffset: 0; stroke-linejoin: miter; stroke-miterlimit: 4; fill: rgb(255,255,255); fill-rule: nonzero; opacity: 1;" vector-effect="non-scaling-stroke"  transform=" translate(-674.94, -280.06)" d="M 451.25 16.6484 L 532.77 16.6484 L 532.77 284.578 C 532.77 284.578 622.9689999999999 250.08999999999997 675.199 176.44899999999996 C 736.762 89.6602 724.73 14.0703 724.73 14.0703 L 894.77 14.0703 C 894.77 14.0703 907.621 357.97999999999996 546.949 463.602 L 898.6289999999999 463.602 L 898.6289999999999 546.059 L 451.641 546.059 L 451.641 33.3711 Z" stroke-linecap="round" />
</g>
		<g transform="matrix(0.12 0 0 -0.12 -26.29 -30.97)" id="M8lgHc2jwn235tXb3VOoH" clip-path="url(#CLIPPATH_34)"  >
<clipPath id="CLIPPATH_34" >
	<path transform="matrix(1 0 0 1 227.44 -269.94) translate(-455, -542.12)" id="a" d="M 0 2.12109 L 910 2.12109 L 910 1082.1211 L 0 1082.1211 Z" stroke-linecap="round" />
</clipPath>
<path style="stroke: none; stroke-width: 1; stroke-dasharray: none; stroke-linecap: butt; stroke-dashoffset: 0; stroke-linejoin: miter; stroke-miterlimit: 4; fill: rgb(255,255,255); fill-rule: nonzero; opacity: 1;" vector-effect="non-scaling-stroke"  transform=" translate(-227.56, -812.06)" d="M 451.25 1075.48 L 369.73 1075.48 L 369.73 807.551 C 369.73 807.551 279.531 842.039 227.30100000000002 915.672 C 165.738 1002.47 177.77 1078.06 177.77 1078.06 L 7.73047 1078.06 C 7.73047 1078.06 -5.121089999999999 734.1089999999999 355.55100000000004 628.4879999999999 L 3.87109 628.4879999999999 L 3.87109 546.059 L 450.859 546.059 L 450.859 1058.7199999999998 z" stroke-linecap="round" />
</g>
		<g transform="matrix(0.12 0 0 -0.12 26.14 -31)" id="g_vfgEN3B3c4VYrnn1__6" clip-path="url(#CLIPPATH_35)"  >
<clipPath id="CLIPPATH_35" >
	<path transform="matrix(1 0 0 1 -219.94 -269.94) translate(-455, -542.12)" id="a" d="M 0 2.12109 L 910 2.12109 L 910 1082.1211 L 0 1082.1211 Z" stroke-linecap="round" />
</clipPath>
<path style="stroke: none; stroke-width: 1; stroke-dasharray: none; stroke-linecap: butt; stroke-dashoffset: 0; stroke-linejoin: miter; stroke-miterlimit: 4; fill: rgb(255,255,255); fill-rule: nonzero; opacity: 1;" vector-effect="non-scaling-stroke"  transform=" translate(-674.94, -812.06)" d="M 451.25 1075.48 L 532.77 1075.48 L 532.77 807.551 C 532.77 807.551 622.9689999999999 842.039 675.199 915.672 C 736.762 1002.47 724.7299999999999 1078.06 724.7299999999999 1078.06 L 894.7699999999999 1078.06 C 894.7699999999999 1078.06 907.6209999999999 734.1089999999999 546.9489999999998 628.4879999999999 L 898.6289999999999 628.4879999999999 L 898.6289999999999 546.059 L 451.641 546.059 L 451.641 1058.7199999999998 z" stroke-linecap="round" />
</g>
</g>
</g>
</svg>